<mxfile host="65bd71144e">
    <diagram id="E73KAtJa-JTTu3t9GZal" name="Page-1">
        <mxGraphModel dx="3701" dy="403" grid="1" gridSize="10" guides="1" tooltips="1" connect="1" arrows="1" fold="1" page="1" pageScale="1" pageWidth="850" pageHeight="1100" math="0" shadow="0">
            <root>
                <mxCell id="0"/>
                <mxCell id="1" parent="0"/>
                <mxCell id="252" value="" style="edgeStyle=orthogonalEdgeStyle;html=1;dashed=1;endArrow=classic;endFill=1;" edge="1" parent="1" source="53" target="248">
                    <mxGeometry relative="1" as="geometry"/>
                </mxCell>
                <mxCell id="53" value="GetKeywordHash" style="swimlane;fontStyle=1;align=center;verticalAlign=top;childLayout=stackLayout;horizontal=1;startSize=26;horizontalStack=0;resizeParent=1;resizeParentMax=0;resizeLast=0;collapsible=1;marginBottom=0;" parent="1" vertex="1">
                    <mxGeometry x="240" y="560" width="240" height="130" as="geometry"/>
                </mxCell>
                <mxCell id="54" value="+ @hash: Hash" style="text;strokeColor=none;fillColor=none;align=left;verticalAlign=top;spacingLeft=4;spacingRight=4;overflow=hidden;rotatable=0;points=[[0,0.5],[1,0.5]];portConstraint=eastwest;" parent="53" vertex="1">
                    <mxGeometry y="26" width="240" height="34" as="geometry"/>
                </mxCell>
                <mxCell id="55" value="" style="line;strokeWidth=1;fillColor=none;align=left;verticalAlign=middle;spacingTop=-1;spacingLeft=3;spacingRight=3;rotatable=0;labelPosition=right;points=[];portConstraint=eastwest;" parent="53" vertex="1">
                    <mxGeometry y="60" width="240" height="10" as="geometry"/>
                </mxCell>
                <mxCell id="56" value="- initialize()&#10;- run(validated_cli_array: Array)" style="text;strokeColor=none;fillColor=none;align=left;verticalAlign=top;spacingLeft=4;spacingRight=4;overflow=hidden;rotatable=0;points=[[0,0.5],[1,0.5]];portConstraint=eastwest;" parent="53" vertex="1">
                    <mxGeometry y="70" width="240" height="60" as="geometry"/>
                </mxCell>
                <mxCell id="166" value="" style="edgeStyle=none;html=1;entryX=0.5;entryY=0;entryDx=0;entryDy=0;dashed=1;" edge="1" parent="1" source="57" target="90">
                    <mxGeometry relative="1" as="geometry"/>
                </mxCell>
                <mxCell id="57" value="MySqliteQueryCli" style="swimlane;fontStyle=1;align=center;verticalAlign=top;childLayout=stackLayout;horizontal=1;startSize=26;horizontalStack=0;resizeParent=1;resizeParentMax=0;resizeLast=0;collapsible=1;marginBottom=0;" parent="1" vertex="1">
                    <mxGeometry x="240" y="40" width="240" height="96" as="geometry"/>
                </mxCell>
                <mxCell id="59" value="" style="line;strokeWidth=1;fillColor=none;align=left;verticalAlign=middle;spacingTop=-1;spacingLeft=3;spacingRight=3;rotatable=0;labelPosition=right;points=[];portConstraint=eastwest;" parent="57" vertex="1">
                    <mxGeometry y="26" width="240" height="10" as="geometry"/>
                </mxCell>
                <mxCell id="60" value="+ run!" style="text;strokeColor=none;fillColor=none;align=left;verticalAlign=top;spacingLeft=4;spacingRight=4;overflow=hidden;rotatable=0;points=[[0,0.5],[1,0.5]];portConstraint=eastwest;" parent="57" vertex="1">
                    <mxGeometry y="36" width="240" height="60" as="geometry"/>
                </mxCell>
                <mxCell id="170" value="" style="edgeStyle=none;html=1;dashed=1;entryX=0.5;entryY=0;entryDx=0;entryDy=0;" edge="1" parent="1" source="90" target="173">
                    <mxGeometry relative="1" as="geometry">
                        <mxPoint x="420" y="330" as="targetPoint"/>
                    </mxGeometry>
                </mxCell>
                <mxCell id="90" value="ParseCli" style="swimlane;fontStyle=1;align=center;verticalAlign=top;childLayout=stackLayout;horizontal=1;startSize=26;horizontalStack=0;resizeParent=1;resizeParentMax=0;resizeLast=0;collapsible=1;marginBottom=0;" parent="1" vertex="1">
                    <mxGeometry x="240" y="199" width="240" height="96" as="geometry"/>
                </mxCell>
                <mxCell id="92" value="" style="line;strokeWidth=1;fillColor=none;align=left;verticalAlign=middle;spacingTop=-1;spacingLeft=3;spacingRight=3;rotatable=0;labelPosition=right;points=[];portConstraint=eastwest;" parent="90" vertex="1">
                    <mxGeometry y="26" width="240" height="10" as="geometry"/>
                </mxCell>
                <mxCell id="93" value="+ run(cli_entry: String)" style="text;strokeColor=none;fillColor=none;align=left;verticalAlign=top;spacingLeft=4;spacingRight=4;overflow=hidden;rotatable=0;points=[[0,0.5],[1,0.5]];portConstraint=eastwest;" parent="90" vertex="1">
                    <mxGeometry y="36" width="240" height="60" as="geometry"/>
                </mxCell>
                <mxCell id="247" value="" style="edgeStyle=orthogonalEdgeStyle;html=1;dashed=1;endArrow=classic;endFill=1;entryX=0.5;entryY=0;entryDx=0;entryDy=0;" edge="1" parent="1" source="173" target="53">
                    <mxGeometry relative="1" as="geometry"/>
                </mxCell>
                <mxCell id="173" value="ValidateQuery" style="swimlane;fontStyle=1;align=center;verticalAlign=top;childLayout=stackLayout;horizontal=1;startSize=26;horizontalStack=0;resizeParent=1;resizeParentMax=0;resizeLast=0;collapsible=1;marginBottom=0;" vertex="1" parent="1">
                    <mxGeometry x="240" y="376" width="240" height="106" as="geometry"/>
                </mxCell>
                <mxCell id="175" value="" style="line;strokeWidth=1;fillColor=none;align=left;verticalAlign=middle;spacingTop=-1;spacingLeft=3;spacingRight=3;rotatable=0;labelPosition=right;points=[];portConstraint=eastwest;" vertex="1" parent="173">
                    <mxGeometry y="26" width="240" height="10" as="geometry"/>
                </mxCell>
                <mxCell id="176" value="+ run(cli_array: String)" style="text;strokeColor=none;fillColor=none;align=left;verticalAlign=top;spacingLeft=4;spacingRight=4;overflow=hidden;rotatable=0;points=[[0,0.5],[1,0.5]];portConstraint=eastwest;whiteSpace=wrap;" vertex="1" parent="173">
                    <mxGeometry y="36" width="240" height="70" as="geometry"/>
                </mxCell>
                <mxCell id="191" style="edgeStyle=orthogonalEdgeStyle;html=1;dashed=1;entryX=1.006;entryY=0.334;entryDx=0;entryDy=0;entryPerimeter=0;" edge="1" parent="1" source="178" target="176">
                    <mxGeometry relative="1" as="geometry">
                        <mxPoint x="520" y="400" as="targetPoint"/>
                        <Array as="points">
                            <mxPoint x="560" y="288"/>
                            <mxPoint x="560" y="435"/>
                        </Array>
                    </mxGeometry>
                </mxCell>
                <mxCell id="178" value="CheckSemiColon" style="swimlane;fontStyle=1;align=center;verticalAlign=top;childLayout=stackLayout;horizontal=1;startSize=26;horizontalStack=0;resizeParent=1;resizeParentMax=0;resizeLast=0;collapsible=1;marginBottom=0;" vertex="1" parent="1">
                    <mxGeometry x="640" y="240" width="240" height="96" as="geometry"/>
                </mxCell>
                <mxCell id="180" value="" style="line;strokeWidth=1;fillColor=none;align=left;verticalAlign=middle;spacingTop=-1;spacingLeft=3;spacingRight=3;rotatable=0;labelPosition=right;points=[];portConstraint=eastwest;" vertex="1" parent="178">
                    <mxGeometry y="26" width="240" height="10" as="geometry"/>
                </mxCell>
                <mxCell id="181" value="+ run(cli_array: String)" style="text;strokeColor=none;fillColor=none;align=left;verticalAlign=top;spacingLeft=4;spacingRight=4;overflow=hidden;rotatable=0;points=[[0,0.5],[1,0.5]];portConstraint=eastwest;" vertex="1" parent="178">
                    <mxGeometry y="36" width="240" height="60" as="geometry"/>
                </mxCell>
                <mxCell id="190" style="edgeStyle=orthogonalEdgeStyle;html=1;dashed=1;" edge="1" parent="1" source="184">
                    <mxGeometry relative="1" as="geometry">
                        <Array as="points">
                            <mxPoint x="490" y="435"/>
                            <mxPoint x="490" y="435"/>
                        </Array>
                        <mxPoint x="480" y="435" as="targetPoint"/>
                    </mxGeometry>
                </mxCell>
                <mxCell id="184" value="CheckKeyword" style="swimlane;fontStyle=1;align=center;verticalAlign=top;childLayout=stackLayout;horizontal=1;startSize=26;horizontalStack=0;resizeParent=1;resizeParentMax=0;resizeLast=0;collapsible=1;marginBottom=0;" vertex="1" parent="1">
                    <mxGeometry x="640" y="387" width="240" height="96" as="geometry"/>
                </mxCell>
                <mxCell id="185" value="" style="line;strokeWidth=1;fillColor=none;align=left;verticalAlign=middle;spacingTop=-1;spacingLeft=3;spacingRight=3;rotatable=0;labelPosition=right;points=[];portConstraint=eastwest;" vertex="1" parent="184">
                    <mxGeometry y="26" width="240" height="10" as="geometry"/>
                </mxCell>
                <mxCell id="186" value="+ run(cli_array: String)" style="text;strokeColor=none;fillColor=none;align=left;verticalAlign=top;spacingLeft=4;spacingRight=4;overflow=hidden;rotatable=0;points=[[0,0.5],[1,0.5]];portConstraint=eastwest;" vertex="1" parent="184">
                    <mxGeometry y="36" width="240" height="60" as="geometry"/>
                </mxCell>
                <mxCell id="192" style="edgeStyle=orthogonalEdgeStyle;html=1;entryX=1.008;entryY=0.337;entryDx=0;entryDy=0;entryPerimeter=0;dashed=1;" edge="1" parent="1" source="187" target="176">
                    <mxGeometry relative="1" as="geometry">
                        <Array as="points">
                            <mxPoint x="560" y="568"/>
                            <mxPoint x="560" y="436"/>
                        </Array>
                    </mxGeometry>
                </mxCell>
                <mxCell id="187" value="ScanEntireQuery" style="swimlane;fontStyle=1;align=center;verticalAlign=top;childLayout=stackLayout;horizontal=1;startSize=26;horizontalStack=0;resizeParent=1;resizeParentMax=0;resizeLast=0;collapsible=1;marginBottom=0;" vertex="1" parent="1">
                    <mxGeometry x="640" y="520" width="240" height="96" as="geometry"/>
                </mxCell>
                <mxCell id="188" value="" style="line;strokeWidth=1;fillColor=none;align=left;verticalAlign=middle;spacingTop=-1;spacingLeft=3;spacingRight=3;rotatable=0;labelPosition=right;points=[];portConstraint=eastwest;" vertex="1" parent="187">
                    <mxGeometry y="26" width="240" height="10" as="geometry"/>
                </mxCell>
                <mxCell id="189" value="+ run(cli_array: String)" style="text;strokeColor=none;fillColor=none;align=left;verticalAlign=top;spacingLeft=4;spacingRight=4;overflow=hidden;rotatable=0;points=[[0,0.5],[1,0.5]];portConstraint=eastwest;" vertex="1" parent="187">
                    <mxGeometry y="36" width="240" height="60" as="geometry"/>
                </mxCell>
                <mxCell id="221" style="edgeStyle=orthogonalEdgeStyle;html=1;entryX=0.992;entryY=0.205;entryDx=0;entryDy=0;entryPerimeter=0;dashed=1;endArrow=none;endFill=0;" edge="1" parent="1" source="195" target="189">
                    <mxGeometry relative="1" as="geometry"/>
                </mxCell>
                <mxCell id="193" value="CheckWhereArgs" style="swimlane;fontStyle=1;align=center;verticalAlign=top;childLayout=stackLayout;horizontal=1;startSize=26;horizontalStack=0;resizeParent=1;resizeParentMax=0;resizeLast=0;collapsible=1;marginBottom=0;" vertex="1" parent="1">
                    <mxGeometry x="1040" y="239" width="320" height="96" as="geometry"/>
                </mxCell>
                <mxCell id="194" value="" style="line;strokeWidth=1;fillColor=none;align=left;verticalAlign=middle;spacingTop=-1;spacingLeft=3;spacingRight=3;rotatable=0;labelPosition=right;points=[];portConstraint=eastwest;" vertex="1" parent="193">
                    <mxGeometry y="26" width="320" height="10" as="geometry"/>
                </mxCell>
                <mxCell id="195" value="+ run(temp_array: Array, word: String, index: Integer" style="text;strokeColor=none;fillColor=none;align=left;verticalAlign=top;spacingLeft=4;spacingRight=4;overflow=hidden;rotatable=0;points=[[0,0.5],[1,0.5]];portConstraint=eastwest;" vertex="1" parent="193">
                    <mxGeometry y="36" width="320" height="60" as="geometry"/>
                </mxCell>
                <mxCell id="205" value="CheckOnArgs" style="swimlane;fontStyle=1;align=center;verticalAlign=top;childLayout=stackLayout;horizontal=1;startSize=26;horizontalStack=0;resizeParent=1;resizeParentMax=0;resizeLast=0;collapsible=1;marginBottom=0;" vertex="1" parent="1">
                    <mxGeometry x="1040" y="381" width="320" height="96" as="geometry"/>
                </mxCell>
                <mxCell id="206" value="" style="line;strokeWidth=1;fillColor=none;align=left;verticalAlign=middle;spacingTop=-1;spacingLeft=3;spacingRight=3;rotatable=0;labelPosition=right;points=[];portConstraint=eastwest;" vertex="1" parent="205">
                    <mxGeometry y="26" width="320" height="10" as="geometry"/>
                </mxCell>
                <mxCell id="222" value="+ run(temp_array: Array, word: String, index: Integer" style="text;strokeColor=none;fillColor=none;align=left;verticalAlign=top;spacingLeft=4;spacingRight=4;overflow=hidden;rotatable=0;points=[[0,0.5],[1,0.5]];portConstraint=eastwest;" vertex="1" parent="205">
                    <mxGeometry y="36" width="320" height="60" as="geometry"/>
                </mxCell>
                <mxCell id="225" style="edgeStyle=orthogonalEdgeStyle;html=1;dashed=1;" edge="1" parent="1" source="208">
                    <mxGeometry relative="1" as="geometry">
                        <mxPoint x="880" y="568" as="targetPoint"/>
                    </mxGeometry>
                </mxCell>
                <mxCell id="208" value="CheckInsertArgs" style="swimlane;fontStyle=1;align=center;verticalAlign=top;childLayout=stackLayout;horizontal=1;startSize=26;horizontalStack=0;resizeParent=1;resizeParentMax=0;resizeLast=0;collapsible=1;marginBottom=0;" vertex="1" parent="1">
                    <mxGeometry x="1040" y="520" width="320" height="96" as="geometry"/>
                </mxCell>
                <mxCell id="209" value="" style="line;strokeWidth=1;fillColor=none;align=left;verticalAlign=middle;spacingTop=-1;spacingLeft=3;spacingRight=3;rotatable=0;labelPosition=right;points=[];portConstraint=eastwest;" vertex="1" parent="208">
                    <mxGeometry y="26" width="320" height="10" as="geometry"/>
                </mxCell>
                <mxCell id="210" value="+ run(temp_array: Array, word: String, index: Integer" style="text;strokeColor=none;fillColor=none;align=left;verticalAlign=top;spacingLeft=4;spacingRight=4;overflow=hidden;rotatable=0;points=[[0,0.5],[1,0.5]];portConstraint=eastwest;" vertex="1" parent="208">
                    <mxGeometry y="36" width="320" height="60" as="geometry"/>
                </mxCell>
                <mxCell id="211" value="CheckOrderArgs" style="swimlane;fontStyle=1;align=center;verticalAlign=top;childLayout=stackLayout;horizontal=1;startSize=26;horizontalStack=0;resizeParent=1;resizeParentMax=0;resizeLast=0;collapsible=1;marginBottom=0;" vertex="1" parent="1">
                    <mxGeometry x="1040" y="659" width="320" height="96" as="geometry"/>
                </mxCell>
                <mxCell id="212" value="" style="line;strokeWidth=1;fillColor=none;align=left;verticalAlign=middle;spacingTop=-1;spacingLeft=3;spacingRight=3;rotatable=0;labelPosition=right;points=[];portConstraint=eastwest;" vertex="1" parent="211">
                    <mxGeometry y="26" width="320" height="10" as="geometry"/>
                </mxCell>
                <mxCell id="213" value="+ run(temp_array: Array, word: String, index: Integer" style="text;strokeColor=none;fillColor=none;align=left;verticalAlign=top;spacingLeft=4;spacingRight=4;overflow=hidden;rotatable=0;points=[[0,0.5],[1,0.5]];portConstraint=eastwest;" vertex="1" parent="211">
                    <mxGeometry y="36" width="320" height="60" as="geometry"/>
                </mxCell>
                <mxCell id="227" style="edgeStyle=orthogonalEdgeStyle;html=1;dashed=1;endArrow=none;endFill=0;entryX=1.003;entryY=0.218;entryDx=0;entryDy=0;entryPerimeter=0;" edge="1" parent="1" source="214" target="189">
                    <mxGeometry relative="1" as="geometry">
                        <mxPoint x="910" y="570" as="targetPoint"/>
                        <Array as="points">
                            <mxPoint x="960" y="856"/>
                            <mxPoint x="960" y="569"/>
                        </Array>
                    </mxGeometry>
                </mxCell>
                <mxCell id="214" value="CheckDeleteArgs" style="swimlane;fontStyle=1;align=center;verticalAlign=top;childLayout=stackLayout;horizontal=1;startSize=26;horizontalStack=0;resizeParent=1;resizeParentMax=0;resizeLast=0;collapsible=1;marginBottom=0;" vertex="1" parent="1">
                    <mxGeometry x="1040" y="808" width="320" height="96" as="geometry"/>
                </mxCell>
                <mxCell id="215" value="" style="line;strokeWidth=1;fillColor=none;align=left;verticalAlign=middle;spacingTop=-1;spacingLeft=3;spacingRight=3;rotatable=0;labelPosition=right;points=[];portConstraint=eastwest;" vertex="1" parent="214">
                    <mxGeometry y="26" width="320" height="10" as="geometry"/>
                </mxCell>
                <mxCell id="216" value="+ run(temp_array: Array, word: String, index: Integer" style="text;strokeColor=none;fillColor=none;align=left;verticalAlign=top;spacingLeft=4;spacingRight=4;overflow=hidden;rotatable=0;points=[[0,0.5],[1,0.5]];portConstraint=eastwest;" vertex="1" parent="214">
                    <mxGeometry y="36" width="320" height="60" as="geometry"/>
                </mxCell>
                <mxCell id="223" style="edgeStyle=orthogonalEdgeStyle;html=1;dashed=1;endArrow=none;endFill=0;" edge="1" parent="1" source="222">
                    <mxGeometry relative="1" as="geometry">
                        <Array as="points">
                            <mxPoint x="960" y="447"/>
                            <mxPoint x="960" y="568"/>
                        </Array>
                        <mxPoint x="880" y="568" as="targetPoint"/>
                    </mxGeometry>
                </mxCell>
                <mxCell id="226" style="edgeStyle=orthogonalEdgeStyle;html=1;entryX=1;entryY=0.204;entryDx=0;entryDy=0;dashed=1;entryPerimeter=0;endArrow=none;endFill=0;" edge="1" parent="1" source="213" target="189">
                    <mxGeometry relative="1" as="geometry"/>
                </mxCell>
                <mxCell id="228" value="Format" style="swimlane;fontStyle=1;align=center;verticalAlign=top;childLayout=stackLayout;horizontal=1;startSize=26;horizontalStack=0;resizeParent=1;resizeParentMax=0;resizeLast=0;collapsible=1;marginBottom=0;" vertex="1" parent="1">
                    <mxGeometry x="1479" y="520" width="320" height="96" as="geometry"/>
                </mxCell>
                <mxCell id="229" value="" style="line;strokeWidth=1;fillColor=none;align=left;verticalAlign=middle;spacingTop=-1;spacingLeft=3;spacingRight=3;rotatable=0;labelPosition=right;points=[];portConstraint=eastwest;" vertex="1" parent="228">
                    <mxGeometry y="26" width="320" height="10" as="geometry"/>
                </mxCell>
                <mxCell id="230" value="+ run(word: String)" style="text;strokeColor=none;fillColor=none;align=left;verticalAlign=top;spacingLeft=4;spacingRight=4;overflow=hidden;rotatable=0;points=[[0,0.5],[1,0.5]];portConstraint=eastwest;" vertex="1" parent="228">
                    <mxGeometry y="36" width="320" height="60" as="geometry"/>
                </mxCell>
                <mxCell id="239" style="edgeStyle=orthogonalEdgeStyle;html=1;entryX=1.004;entryY=0.307;entryDx=0;entryDy=0;entryPerimeter=0;dashed=1;endArrow=classic;endFill=1;" edge="1" parent="1" source="232" target="230">
                    <mxGeometry relative="1" as="geometry">
                        <Array as="points">
                            <mxPoint x="1839" y="462"/>
                            <mxPoint x="1839" y="574"/>
                        </Array>
                    </mxGeometry>
                </mxCell>
                <mxCell id="232" value="FormatFirstChar" style="swimlane;fontStyle=1;align=center;verticalAlign=top;childLayout=stackLayout;horizontal=1;startSize=26;horizontalStack=0;resizeParent=1;resizeParentMax=0;resizeLast=0;collapsible=1;marginBottom=0;" vertex="1" parent="1">
                    <mxGeometry x="1876" y="414" width="320" height="96" as="geometry"/>
                </mxCell>
                <mxCell id="233" value="" style="line;strokeWidth=1;fillColor=none;align=left;verticalAlign=middle;spacingTop=-1;spacingLeft=3;spacingRight=3;rotatable=0;labelPosition=right;points=[];portConstraint=eastwest;" vertex="1" parent="232">
                    <mxGeometry y="26" width="320" height="10" as="geometry"/>
                </mxCell>
                <mxCell id="234" value="+ run(word: String)" style="text;strokeColor=none;fillColor=none;align=left;verticalAlign=top;spacingLeft=4;spacingRight=4;overflow=hidden;rotatable=0;points=[[0,0.5],[1,0.5]];portConstraint=eastwest;" vertex="1" parent="232">
                    <mxGeometry y="36" width="320" height="60" as="geometry"/>
                </mxCell>
                <mxCell id="238" style="edgeStyle=orthogonalEdgeStyle;html=1;entryX=1.007;entryY=0.307;entryDx=0;entryDy=0;entryPerimeter=0;dashed=1;endArrow=none;endFill=0;" edge="1" parent="1" source="235" target="230">
                    <mxGeometry relative="1" as="geometry"/>
                </mxCell>
                <mxCell id="235" value="FormatLastChar" style="swimlane;fontStyle=1;align=center;verticalAlign=top;childLayout=stackLayout;horizontal=1;startSize=26;horizontalStack=0;resizeParent=1;resizeParentMax=0;resizeLast=0;collapsible=1;marginBottom=0;" vertex="1" parent="1">
                    <mxGeometry x="1876" y="616" width="320" height="96" as="geometry"/>
                </mxCell>
                <mxCell id="236" value="" style="line;strokeWidth=1;fillColor=none;align=left;verticalAlign=middle;spacingTop=-1;spacingLeft=3;spacingRight=3;rotatable=0;labelPosition=right;points=[];portConstraint=eastwest;" vertex="1" parent="235">
                    <mxGeometry y="26" width="320" height="10" as="geometry"/>
                </mxCell>
                <mxCell id="237" value="+ run(word: String)" style="text;strokeColor=none;fillColor=none;align=left;verticalAlign=top;spacingLeft=4;spacingRight=4;overflow=hidden;rotatable=0;points=[[0,0.5],[1,0.5]];portConstraint=eastwest;" vertex="1" parent="235">
                    <mxGeometry y="36" width="320" height="60" as="geometry"/>
                </mxCell>
                <mxCell id="240" style="edgeStyle=orthogonalEdgeStyle;html=1;entryX=1;entryY=0.5;entryDx=0;entryDy=0;dashed=1;endArrow=classic;endFill=1;" edge="1" parent="1" source="230" target="195">
                    <mxGeometry relative="1" as="geometry">
                        <Array as="points">
                            <mxPoint x="1420" y="586"/>
                            <mxPoint x="1420" y="305"/>
                        </Array>
                    </mxGeometry>
                </mxCell>
                <mxCell id="241" style="edgeStyle=orthogonalEdgeStyle;html=1;entryX=1;entryY=0.5;entryDx=0;entryDy=0;dashed=1;endArrow=classic;endFill=1;" edge="1" parent="1" source="230" target="222">
                    <mxGeometry relative="1" as="geometry">
                        <Array as="points">
                            <mxPoint x="1420" y="586"/>
                            <mxPoint x="1420" y="447"/>
                        </Array>
                    </mxGeometry>
                </mxCell>
                <mxCell id="244" style="edgeStyle=orthogonalEdgeStyle;html=1;entryX=1;entryY=0.5;entryDx=0;entryDy=0;dashed=1;endArrow=classic;endFill=1;" edge="1" parent="1" source="230" target="216">
                    <mxGeometry relative="1" as="geometry">
                        <Array as="points">
                            <mxPoint x="1420" y="586"/>
                            <mxPoint x="1420" y="874"/>
                        </Array>
                    </mxGeometry>
                </mxCell>
                <mxCell id="245" style="edgeStyle=orthogonalEdgeStyle;html=1;dashed=1;endArrow=classic;endFill=1;" edge="1" parent="1" source="230" target="210">
                    <mxGeometry relative="1" as="geometry"/>
                </mxCell>
                <mxCell id="246" style="edgeStyle=orthogonalEdgeStyle;html=1;entryX=1;entryY=0.5;entryDx=0;entryDy=0;dashed=1;endArrow=classic;endFill=1;" edge="1" parent="1" source="230" target="213">
                    <mxGeometry relative="1" as="geometry"/>
                </mxCell>
                <mxCell id="257" value="" style="edgeStyle=orthogonalEdgeStyle;html=1;dashed=1;endArrow=classic;endFill=1;" edge="1" parent="1" source="248" target="253">
                    <mxGeometry relative="1" as="geometry"/>
                </mxCell>
                <mxCell id="283" value="" style="edgeStyle=orthogonalEdgeStyle;html=1;endArrow=none;endFill=0;" edge="1" parent="1" source="248" target="279">
                    <mxGeometry relative="1" as="geometry"/>
                </mxCell>
                <mxCell id="248" value="MySqliteRequest" style="swimlane;fontStyle=1;align=center;verticalAlign=top;childLayout=stackLayout;horizontal=1;startSize=26;horizontalStack=0;resizeParent=1;resizeParentMax=0;resizeLast=0;collapsible=1;marginBottom=0;" vertex="1" parent="1">
                    <mxGeometry x="240" y="770" width="240" height="350" as="geometry"/>
                </mxCell>
                <mxCell id="249" value="+ query_type: String&#10;+ selected_columns: Array&#10;+ current_table: String&#10;+ order: String&#10;+ insert_table: String&#10;+ insert_columns: Array&#10;+ insert_values: Array&#10;+ insert_hash: Hash&#10;+ update_table: String&#10;+ set: Hash&#10;+ where: Hash&#10;+ join_table: String&#10;+ new_joined_table: String&#10;+ on_hash: Hash&#10;+ delete_table: String&#10;+ query_result: Array &#10;" style="text;strokeColor=none;fillColor=none;align=left;verticalAlign=top;spacingLeft=4;spacingRight=4;overflow=hidden;rotatable=0;points=[[0,0.5],[1,0.5]];portConstraint=eastwest;" vertex="1" parent="248">
                    <mxGeometry y="26" width="240" height="244" as="geometry"/>
                </mxCell>
                <mxCell id="250" value="" style="line;strokeWidth=1;fillColor=none;align=left;verticalAlign=middle;spacingTop=-1;spacingLeft=3;spacingRight=3;rotatable=0;labelPosition=right;points=[];portConstraint=eastwest;" vertex="1" parent="248">
                    <mxGeometry y="270" width="240" height="10" as="geometry"/>
                </mxCell>
                <mxCell id="251" value="- initialize()&#10;- run(validated_cli_array: Array)" style="text;strokeColor=none;fillColor=none;align=left;verticalAlign=top;spacingLeft=4;spacingRight=4;overflow=hidden;rotatable=0;points=[[0,0.5],[1,0.5]];portConstraint=eastwest;" vertex="1" parent="248">
                    <mxGeometry y="280" width="240" height="70" as="geometry"/>
                </mxCell>
                <mxCell id="262" value="" style="edgeStyle=orthogonalEdgeStyle;html=1;dashed=1;endArrow=classic;endFill=1;" edge="1" parent="1" source="253" target="258">
                    <mxGeometry relative="1" as="geometry">
                        <Array as="points">
                            <mxPoint x="360" y="1360"/>
                            <mxPoint x="-120" y="1360"/>
                        </Array>
                    </mxGeometry>
                </mxCell>
                <mxCell id="267" value="" style="edgeStyle=orthogonalEdgeStyle;html=1;dashed=1;endArrow=classic;endFill=1;" edge="1" parent="1" source="253" target="263">
                    <mxGeometry relative="1" as="geometry"/>
                </mxCell>
                <mxCell id="273" value="" style="edgeStyle=orthogonalEdgeStyle;html=1;dashed=1;endArrow=classic;endFill=1;" edge="1" parent="1" source="253" target="269">
                    <mxGeometry relative="1" as="geometry">
                        <Array as="points">
                            <mxPoint x="360" y="1360"/>
                            <mxPoint x="520" y="1360"/>
                        </Array>
                    </mxGeometry>
                </mxCell>
                <mxCell id="278" value="" style="edgeStyle=orthogonalEdgeStyle;html=1;dashed=1;endArrow=classic;endFill=1;" edge="1" parent="1" source="253" target="274">
                    <mxGeometry relative="1" as="geometry">
                        <Array as="points">
                            <mxPoint x="360" y="1360"/>
                            <mxPoint x="850" y="1360"/>
                        </Array>
                    </mxGeometry>
                </mxCell>
                <mxCell id="253" value="RouteRequest" style="swimlane;fontStyle=1;align=center;verticalAlign=top;childLayout=stackLayout;horizontal=1;startSize=26;horizontalStack=0;resizeParent=1;resizeParentMax=0;resizeLast=0;collapsible=1;marginBottom=0;" vertex="1" parent="1">
                    <mxGeometry x="240" y="1200" width="240" height="120" as="geometry"/>
                </mxCell>
                <mxCell id="254" value="&#10;" style="text;strokeColor=none;fillColor=none;align=left;verticalAlign=top;spacingLeft=4;spacingRight=4;overflow=hidden;rotatable=0;points=[[0,0.5],[1,0.5]];portConstraint=eastwest;" vertex="1" parent="253">
                    <mxGeometry y="26" width="240" height="14" as="geometry"/>
                </mxCell>
                <mxCell id="255" value="" style="line;strokeWidth=1;fillColor=none;align=left;verticalAlign=middle;spacingTop=-1;spacingLeft=3;spacingRight=3;rotatable=0;labelPosition=right;points=[];portConstraint=eastwest;" vertex="1" parent="253">
                    <mxGeometry y="40" width="240" height="10" as="geometry"/>
                </mxCell>
                <mxCell id="256" value="- run(request: String)" style="text;strokeColor=none;fillColor=none;align=left;verticalAlign=top;spacingLeft=4;spacingRight=4;overflow=hidden;rotatable=0;points=[[0,0.5],[1,0.5]];portConstraint=eastwest;" vertex="1" parent="253">
                    <mxGeometry y="50" width="240" height="70" as="geometry"/>
                </mxCell>
                <mxCell id="353" value="" style="edgeStyle=orthogonalEdgeStyle;html=1;dashed=1;endArrow=classic;endFill=1;" edge="1" parent="1" source="263" target="349">
                    <mxGeometry relative="1" as="geometry"/>
                </mxCell>
                <mxCell id="263" value="InsertProcess" style="swimlane;fontStyle=1;align=center;verticalAlign=top;childLayout=stackLayout;horizontal=1;startSize=26;horizontalStack=0;resizeParent=1;resizeParentMax=0;resizeLast=0;collapsible=1;marginBottom=0;" vertex="1" parent="1">
                    <mxGeometry x="80" y="1400" width="240" height="120" as="geometry"/>
                </mxCell>
                <mxCell id="264" value="&#10;" style="text;strokeColor=none;fillColor=none;align=left;verticalAlign=top;spacingLeft=4;spacingRight=4;overflow=hidden;rotatable=0;points=[[0,0.5],[1,0.5]];portConstraint=eastwest;" vertex="1" parent="263">
                    <mxGeometry y="26" width="240" height="14" as="geometry"/>
                </mxCell>
                <mxCell id="265" value="" style="line;strokeWidth=1;fillColor=none;align=left;verticalAlign=middle;spacingTop=-1;spacingLeft=3;spacingRight=3;rotatable=0;labelPosition=right;points=[];portConstraint=eastwest;" vertex="1" parent="263">
                    <mxGeometry y="40" width="240" height="10" as="geometry"/>
                </mxCell>
                <mxCell id="266" value="- run(request: String)" style="text;strokeColor=none;fillColor=none;align=left;verticalAlign=top;spacingLeft=4;spacingRight=4;overflow=hidden;rotatable=0;points=[[0,0.5],[1,0.5]];portConstraint=eastwest;" vertex="1" parent="263">
                    <mxGeometry y="50" width="240" height="70" as="geometry"/>
                </mxCell>
                <mxCell id="402" style="edgeStyle=orthogonalEdgeStyle;html=1;entryX=0.5;entryY=0;entryDx=0;entryDy=0;dashed=1;endArrow=classic;endFill=1;" edge="1" parent="1" source="269" target="382">
                    <mxGeometry relative="1" as="geometry"/>
                </mxCell>
                <mxCell id="269" value="UpdateProcess" style="swimlane;fontStyle=1;align=center;verticalAlign=top;childLayout=stackLayout;horizontal=1;startSize=26;horizontalStack=0;resizeParent=1;resizeParentMax=0;resizeLast=0;collapsible=1;marginBottom=0;" vertex="1" parent="1">
                    <mxGeometry x="400" y="1400" width="240" height="120" as="geometry"/>
                </mxCell>
                <mxCell id="270" value="&#10;" style="text;strokeColor=none;fillColor=none;align=left;verticalAlign=top;spacingLeft=4;spacingRight=4;overflow=hidden;rotatable=0;points=[[0,0.5],[1,0.5]];portConstraint=eastwest;" vertex="1" parent="269">
                    <mxGeometry y="26" width="240" height="14" as="geometry"/>
                </mxCell>
                <mxCell id="271" value="" style="line;strokeWidth=1;fillColor=none;align=left;verticalAlign=middle;spacingTop=-1;spacingLeft=3;spacingRight=3;rotatable=0;labelPosition=right;points=[];portConstraint=eastwest;" vertex="1" parent="269">
                    <mxGeometry y="40" width="240" height="10" as="geometry"/>
                </mxCell>
                <mxCell id="272" value="+ run(request: String)" style="text;strokeColor=none;fillColor=none;align=left;verticalAlign=top;spacingLeft=4;spacingRight=4;overflow=hidden;rotatable=0;points=[[0,0.5],[1,0.5]];portConstraint=eastwest;" vertex="1" parent="269">
                    <mxGeometry y="50" width="240" height="70" as="geometry"/>
                </mxCell>
                <mxCell id="414" value="" style="edgeStyle=orthogonalEdgeStyle;html=1;dashed=1;endArrow=classic;endFill=1;" edge="1" parent="1" source="274" target="410">
                    <mxGeometry relative="1" as="geometry"/>
                </mxCell>
                <mxCell id="274" value="DeleteProcess" style="swimlane;fontStyle=1;align=center;verticalAlign=top;childLayout=stackLayout;horizontal=1;startSize=26;horizontalStack=0;resizeParent=1;resizeParentMax=0;resizeLast=0;collapsible=1;marginBottom=0;" vertex="1" parent="1">
                    <mxGeometry x="720" y="1400" width="240" height="120" as="geometry"/>
                </mxCell>
                <mxCell id="275" value="&#10;" style="text;strokeColor=none;fillColor=none;align=left;verticalAlign=top;spacingLeft=4;spacingRight=4;overflow=hidden;rotatable=0;points=[[0,0.5],[1,0.5]];portConstraint=eastwest;" vertex="1" parent="274">
                    <mxGeometry y="26" width="240" height="14" as="geometry"/>
                </mxCell>
                <mxCell id="276" value="" style="line;strokeWidth=1;fillColor=none;align=left;verticalAlign=middle;spacingTop=-1;spacingLeft=3;spacingRight=3;rotatable=0;labelPosition=right;points=[];portConstraint=eastwest;" vertex="1" parent="274">
                    <mxGeometry y="40" width="240" height="10" as="geometry"/>
                </mxCell>
                <mxCell id="277" value="+ run(request: String)" style="text;strokeColor=none;fillColor=none;align=left;verticalAlign=top;spacingLeft=4;spacingRight=4;overflow=hidden;rotatable=0;points=[[0,0.5],[1,0.5]];portConstraint=eastwest;" vertex="1" parent="274">
                    <mxGeometry y="50" width="240" height="70" as="geometry"/>
                </mxCell>
                <mxCell id="279" value="PrintAttributes" style="swimlane;fontStyle=1;align=center;verticalAlign=top;childLayout=stackLayout;horizontal=1;startSize=26;horizontalStack=0;resizeParent=1;resizeParentMax=0;resizeLast=0;collapsible=1;marginBottom=0;" vertex="1" parent="1">
                    <mxGeometry x="-120" y="885" width="240" height="120" as="geometry"/>
                </mxCell>
                <mxCell id="280" value="&#10;" style="text;strokeColor=none;fillColor=none;align=left;verticalAlign=top;spacingLeft=4;spacingRight=4;overflow=hidden;rotatable=0;points=[[0,0.5],[1,0.5]];portConstraint=eastwest;" vertex="1" parent="279">
                    <mxGeometry y="26" width="240" height="14" as="geometry"/>
                </mxCell>
                <mxCell id="281" value="" style="line;strokeWidth=1;fillColor=none;align=left;verticalAlign=middle;spacingTop=-1;spacingLeft=3;spacingRight=3;rotatable=0;labelPosition=right;points=[];portConstraint=eastwest;" vertex="1" parent="279">
                    <mxGeometry y="40" width="240" height="10" as="geometry"/>
                </mxCell>
                <mxCell id="282" value="+ run(request:String)" style="text;strokeColor=none;fillColor=none;align=left;verticalAlign=top;spacingLeft=4;spacingRight=4;overflow=hidden;rotatable=0;points=[[0,0.5],[1,0.5]];portConstraint=eastwest;" vertex="1" parent="279">
                    <mxGeometry y="50" width="240" height="70" as="geometry"/>
                </mxCell>
                <mxCell id="344" style="edgeStyle=orthogonalEdgeStyle;html=1;dashed=1;endArrow=classic;endFill=1;" edge="1" parent="1" source="258" target="69">
                    <mxGeometry relative="1" as="geometry">
                        <mxPoint x="-1106" y="1660" as="targetPoint"/>
                        <Array as="points">
                            <mxPoint x="-136" y="1570"/>
                            <mxPoint x="-136" y="1570"/>
                        </Array>
                    </mxGeometry>
                </mxCell>
                <mxCell id="258" value="SelectProcess" style="swimlane;fontStyle=1;align=center;verticalAlign=top;childLayout=stackLayout;horizontal=1;startSize=26;horizontalStack=0;resizeParent=1;resizeParentMax=0;resizeLast=0;collapsible=1;marginBottom=0;" vertex="1" parent="1">
                    <mxGeometry x="-240" y="1400" width="240" height="120" as="geometry"/>
                </mxCell>
                <mxCell id="259" value="&#10;" style="text;strokeColor=none;fillColor=none;align=left;verticalAlign=top;spacingLeft=4;spacingRight=4;overflow=hidden;rotatable=0;points=[[0,0.5],[1,0.5]];portConstraint=eastwest;" vertex="1" parent="258">
                    <mxGeometry y="26" width="240" height="14" as="geometry"/>
                </mxCell>
                <mxCell id="260" value="" style="line;strokeWidth=1;fillColor=none;align=left;verticalAlign=middle;spacingTop=-1;spacingLeft=3;spacingRight=3;rotatable=0;labelPosition=right;points=[];portConstraint=eastwest;" vertex="1" parent="258">
                    <mxGeometry y="40" width="240" height="10" as="geometry"/>
                </mxCell>
                <mxCell id="261" value="- run(request: String)" style="text;strokeColor=none;fillColor=none;align=left;verticalAlign=top;spacingLeft=4;spacingRight=4;overflow=hidden;rotatable=0;points=[[0,0.5],[1,0.5]];portConstraint=eastwest;" vertex="1" parent="258">
                    <mxGeometry y="50" width="240" height="70" as="geometry"/>
                </mxCell>
                <mxCell id="358" value="" style="edgeStyle=orthogonalEdgeStyle;html=1;dashed=1;endArrow=classic;endFill=1;" edge="1" parent="1" source="349" target="354">
                    <mxGeometry relative="1" as="geometry">
                        <Array as="points">
                            <mxPoint x="200" y="1800"/>
                            <mxPoint x="200" y="1800"/>
                        </Array>
                    </mxGeometry>
                </mxCell>
                <mxCell id="349" value="InsertIntoCsvProcess" style="swimlane;fontStyle=1;align=center;verticalAlign=top;childLayout=stackLayout;horizontal=1;startSize=26;horizontalStack=0;resizeParent=1;resizeParentMax=0;resizeLast=0;collapsible=1;marginBottom=0;" vertex="1" parent="1">
                    <mxGeometry x="80" y="1600" width="240" height="120" as="geometry"/>
                </mxCell>
                <mxCell id="350" value="&#10;" style="text;strokeColor=none;fillColor=none;align=left;verticalAlign=top;spacingLeft=4;spacingRight=4;overflow=hidden;rotatable=0;points=[[0,0.5],[1,0.5]];portConstraint=eastwest;" vertex="1" parent="349">
                    <mxGeometry y="26" width="240" height="14" as="geometry"/>
                </mxCell>
                <mxCell id="351" value="" style="line;strokeWidth=1;fillColor=none;align=left;verticalAlign=middle;spacingTop=-1;spacingLeft=3;spacingRight=3;rotatable=0;labelPosition=right;points=[];portConstraint=eastwest;" vertex="1" parent="349">
                    <mxGeometry y="40" width="240" height="10" as="geometry"/>
                </mxCell>
                <mxCell id="352" value="+ run(request: String)" style="text;strokeColor=none;fillColor=none;align=left;verticalAlign=top;spacingLeft=4;spacingRight=4;overflow=hidden;rotatable=0;points=[[0,0.5],[1,0.5]];portConstraint=eastwest;" vertex="1" parent="349">
                    <mxGeometry y="50" width="240" height="70" as="geometry"/>
                </mxCell>
                <mxCell id="404" style="edgeStyle=orthogonalEdgeStyle;html=1;entryX=0.5;entryY=0;entryDx=0;entryDy=0;dashed=1;endArrow=classic;endFill=1;" edge="1" parent="1" source="354" target="365">
                    <mxGeometry relative="1" as="geometry"/>
                </mxCell>
                <mxCell id="354" value="ValidateHashKeys" style="swimlane;fontStyle=1;align=center;verticalAlign=top;childLayout=stackLayout;horizontal=1;startSize=26;horizontalStack=0;resizeParent=1;resizeParentMax=0;resizeLast=0;collapsible=1;marginBottom=0;" vertex="1" parent="1">
                    <mxGeometry x="80" y="1800" width="240" height="120" as="geometry"/>
                </mxCell>
                <mxCell id="355" value="&#10;" style="text;strokeColor=none;fillColor=none;align=left;verticalAlign=top;spacingLeft=4;spacingRight=4;overflow=hidden;rotatable=0;points=[[0,0.5],[1,0.5]];portConstraint=eastwest;" vertex="1" parent="354">
                    <mxGeometry y="26" width="240" height="14" as="geometry"/>
                </mxCell>
                <mxCell id="356" value="" style="line;strokeWidth=1;fillColor=none;align=left;verticalAlign=middle;spacingTop=-1;spacingLeft=3;spacingRight=3;rotatable=0;labelPosition=right;points=[];portConstraint=eastwest;" vertex="1" parent="354">
                    <mxGeometry y="40" width="240" height="10" as="geometry"/>
                </mxCell>
                <mxCell id="357" value="+ run(existing_headers_array: Array, insert_headers_array: Array)" style="text;strokeColor=none;fillColor=none;align=left;verticalAlign=top;spacingLeft=4;spacingRight=4;overflow=hidden;rotatable=0;points=[[0,0.5],[1,0.5]];portConstraint=eastwest;whiteSpace=wrap;" vertex="1" parent="354">
                    <mxGeometry y="50" width="240" height="70" as="geometry"/>
                </mxCell>
                <mxCell id="359" value="CollectValidValues" style="swimlane;fontStyle=1;align=center;verticalAlign=top;childLayout=stackLayout;horizontal=1;startSize=26;horizontalStack=0;resizeParent=1;resizeParentMax=0;resizeLast=0;collapsible=1;marginBottom=0;" vertex="1" parent="1">
                    <mxGeometry x="80" y="1970" width="240" height="120" as="geometry"/>
                </mxCell>
                <mxCell id="360" value="&#10;" style="text;strokeColor=none;fillColor=none;align=left;verticalAlign=top;spacingLeft=4;spacingRight=4;overflow=hidden;rotatable=0;points=[[0,0.5],[1,0.5]];portConstraint=eastwest;" vertex="1" parent="359">
                    <mxGeometry y="26" width="240" height="14" as="geometry"/>
                </mxCell>
                <mxCell id="361" value="" style="line;strokeWidth=1;fillColor=none;align=left;verticalAlign=middle;spacingTop=-1;spacingLeft=3;spacingRight=3;rotatable=0;labelPosition=right;points=[];portConstraint=eastwest;" vertex="1" parent="359">
                    <mxGeometry y="40" width="240" height="10" as="geometry"/>
                </mxCell>
                <mxCell id="362" value="+ run(existing_headers_array: Array, insert_headers_array: Array)" style="text;strokeColor=none;fillColor=none;align=left;verticalAlign=top;spacingLeft=4;spacingRight=4;overflow=hidden;rotatable=0;points=[[0,0.5],[1,0.5]];portConstraint=eastwest;whiteSpace=wrap;" vertex="1" parent="359">
                    <mxGeometry y="50" width="240" height="70" as="geometry"/>
                </mxCell>
                <mxCell id="405" style="edgeStyle=orthogonalEdgeStyle;html=1;entryX=0.5;entryY=0;entryDx=0;entryDy=0;dashed=1;endArrow=classic;endFill=1;" edge="1" parent="1" source="362" target="371">
                    <mxGeometry relative="1" as="geometry">
                        <Array as="points">
                            <mxPoint x="200" y="2100"/>
                            <mxPoint x="200" y="2100"/>
                        </Array>
                    </mxGeometry>
                </mxCell>
                <mxCell id="365" value="CollectValidValues" style="swimlane;fontStyle=1;align=center;verticalAlign=top;childLayout=stackLayout;horizontal=1;startSize=26;horizontalStack=0;resizeParent=1;resizeParentMax=0;resizeLast=0;collapsible=1;marginBottom=0;" vertex="1" parent="1">
                    <mxGeometry x="80" y="1970" width="240" height="50" as="geometry"/>
                </mxCell>
                <mxCell id="366" value="&#10;" style="text;strokeColor=none;fillColor=none;align=left;verticalAlign=top;spacingLeft=4;spacingRight=4;overflow=hidden;rotatable=0;points=[[0,0.5],[1,0.5]];portConstraint=eastwest;" vertex="1" parent="365">
                    <mxGeometry y="26" width="240" height="14" as="geometry"/>
                </mxCell>
                <mxCell id="367" value="" style="line;strokeWidth=1;fillColor=none;align=left;verticalAlign=middle;spacingTop=-1;spacingLeft=3;spacingRight=3;rotatable=0;labelPosition=right;points=[];portConstraint=eastwest;" vertex="1" parent="365">
                    <mxGeometry y="40" width="240" height="10" as="geometry"/>
                </mxCell>
                <mxCell id="371" value="AddValuesToCsv" style="swimlane;fontStyle=1;align=center;verticalAlign=top;childLayout=stackLayout;horizontal=1;startSize=26;horizontalStack=0;resizeParent=1;resizeParentMax=0;resizeLast=0;collapsible=1;marginBottom=0;" vertex="1" parent="1">
                    <mxGeometry x="80" y="2140" width="240" height="120" as="geometry"/>
                </mxCell>
                <mxCell id="372" value="&#10;" style="text;strokeColor=none;fillColor=none;align=left;verticalAlign=top;spacingLeft=4;spacingRight=4;overflow=hidden;rotatable=0;points=[[0,0.5],[1,0.5]];portConstraint=eastwest;" vertex="1" parent="371">
                    <mxGeometry y="26" width="240" height="14" as="geometry"/>
                </mxCell>
                <mxCell id="373" value="" style="line;strokeWidth=1;fillColor=none;align=left;verticalAlign=middle;spacingTop=-1;spacingLeft=3;spacingRight=3;rotatable=0;labelPosition=right;points=[];portConstraint=eastwest;" vertex="1" parent="371">
                    <mxGeometry y="40" width="240" height="10" as="geometry"/>
                </mxCell>
                <mxCell id="374" value="+ run(request: String, validated_values_array: Array)" style="text;strokeColor=none;fillColor=none;align=left;verticalAlign=top;spacingLeft=4;spacingRight=4;overflow=hidden;rotatable=0;points=[[0,0.5],[1,0.5]];portConstraint=eastwest;whiteSpace=wrap;" vertex="1" parent="371">
                    <mxGeometry y="50" width="240" height="70" as="geometry"/>
                </mxCell>
                <mxCell id="325" value="" style="group" vertex="1" connectable="0" parent="1">
                    <mxGeometry x="-1140" y="1683" width="875" height="1329" as="geometry"/>
                </mxCell>
                <mxCell id="69" value="JoinProcess" style="swimlane;fontStyle=1;align=center;verticalAlign=top;childLayout=stackLayout;horizontal=1;startSize=26;horizontalStack=0;resizeParent=1;resizeParentMax=0;resizeLast=0;collapsible=1;marginBottom=0;" parent="325" vertex="1">
                    <mxGeometry x="904" y="-83" width="240" height="106" as="geometry"/>
                </mxCell>
                <mxCell id="71" value="" style="line;strokeWidth=1;fillColor=none;align=left;verticalAlign=middle;spacingTop=-1;spacingLeft=3;spacingRight=3;rotatable=0;labelPosition=right;points=[];portConstraint=eastwest;" parent="69" vertex="1">
                    <mxGeometry y="26" width="240" height="10" as="geometry"/>
                </mxCell>
                <mxCell id="72" value="+ run(request: String)" style="text;strokeColor=none;fillColor=none;align=left;verticalAlign=top;spacingLeft=4;spacingRight=4;overflow=hidden;rotatable=0;points=[[0,0.5],[1,0.5]];portConstraint=eastwest;whiteSpace=wrap;" parent="69" vertex="1">
                    <mxGeometry y="36" width="240" height="70" as="geometry"/>
                </mxCell>
                <mxCell id="347" value="" style="group" vertex="1" connectable="0" parent="1">
                    <mxGeometry x="-2020" y="1854" width="770" height="478" as="geometry"/>
                </mxCell>
                <mxCell id="336" value="OrderAsc" style="swimlane;fontStyle=1;align=center;verticalAlign=top;childLayout=stackLayout;horizontal=1;startSize=26;horizontalStack=0;resizeParent=1;resizeParentMax=0;resizeLast=0;collapsible=1;marginBottom=0;" vertex="1" parent="347">
                    <mxGeometry y="372" width="240" height="106" as="geometry"/>
                </mxCell>
                <mxCell id="337" value="" style="line;strokeWidth=1;fillColor=none;align=left;verticalAlign=middle;spacingTop=-1;spacingLeft=3;spacingRight=3;rotatable=0;labelPosition=right;points=[];portConstraint=eastwest;" vertex="1" parent="336">
                    <mxGeometry y="26" width="240" height="10" as="geometry"/>
                </mxCell>
                <mxCell id="338" value="+ run(request: String, column_name: String)&#10;+ partition_nil_asc(request: String, column_name: String)" style="text;strokeColor=none;fillColor=none;align=left;verticalAlign=top;spacingLeft=4;spacingRight=4;overflow=hidden;rotatable=0;points=[[0,0.5],[1,0.5]];portConstraint=eastwest;whiteSpace=wrap;" vertex="1" parent="336">
                    <mxGeometry y="36" width="240" height="70" as="geometry"/>
                </mxCell>
                <mxCell id="378" value="" style="edgeStyle=orthogonalEdgeStyle;html=1;dashed=1;endArrow=classic;endFill=1;" edge="1" parent="1" source="382" target="386">
                    <mxGeometry relative="1" as="geometry">
                        <Array as="points">
                            <mxPoint x="520" y="1800"/>
                            <mxPoint x="520" y="1800"/>
                        </Array>
                    </mxGeometry>
                </mxCell>
                <mxCell id="382" value="UpdateRow" style="swimlane;fontStyle=1;align=center;verticalAlign=top;childLayout=stackLayout;horizontal=1;startSize=26;horizontalStack=0;resizeParent=1;resizeParentMax=0;resizeLast=0;collapsible=1;marginBottom=0;" vertex="1" parent="1">
                    <mxGeometry x="400" y="1600" width="240" height="120" as="geometry"/>
                </mxCell>
                <mxCell id="383" value="&#10;" style="text;strokeColor=none;fillColor=none;align=left;verticalAlign=top;spacingLeft=4;spacingRight=4;overflow=hidden;rotatable=0;points=[[0,0.5],[1,0.5]];portConstraint=eastwest;" vertex="1" parent="382">
                    <mxGeometry y="26" width="240" height="14" as="geometry"/>
                </mxCell>
                <mxCell id="384" value="" style="line;strokeWidth=1;fillColor=none;align=left;verticalAlign=middle;spacingTop=-1;spacingLeft=3;spacingRight=3;rotatable=0;labelPosition=right;points=[];portConstraint=eastwest;" vertex="1" parent="382">
                    <mxGeometry y="40" width="240" height="10" as="geometry"/>
                </mxCell>
                <mxCell id="385" value="+ run(request: String)" style="text;strokeColor=none;fillColor=none;align=left;verticalAlign=top;spacingLeft=4;spacingRight=4;overflow=hidden;rotatable=0;points=[[0,0.5],[1,0.5]];portConstraint=eastwest;" vertex="1" parent="382">
                    <mxGeometry y="50" width="240" height="70" as="geometry"/>
                </mxCell>
                <mxCell id="403" style="edgeStyle=orthogonalEdgeStyle;html=1;dashed=1;endArrow=classic;endFill=1;" edge="1" parent="1" source="386" target="397">
                    <mxGeometry relative="1" as="geometry"/>
                </mxCell>
                <mxCell id="386" value="CollectRowsToUpdate" style="swimlane;fontStyle=1;align=center;verticalAlign=top;childLayout=stackLayout;horizontal=1;startSize=26;horizontalStack=0;resizeParent=1;resizeParentMax=0;resizeLast=0;collapsible=1;marginBottom=0;" vertex="1" parent="1">
                    <mxGeometry x="400" y="1800" width="240" height="120" as="geometry"/>
                </mxCell>
                <mxCell id="387" value="&#10;" style="text;strokeColor=none;fillColor=none;align=left;verticalAlign=top;spacingLeft=4;spacingRight=4;overflow=hidden;rotatable=0;points=[[0,0.5],[1,0.5]];portConstraint=eastwest;" vertex="1" parent="386">
                    <mxGeometry y="26" width="240" height="14" as="geometry"/>
                </mxCell>
                <mxCell id="388" value="" style="line;strokeWidth=1;fillColor=none;align=left;verticalAlign=middle;spacingTop=-1;spacingLeft=3;spacingRight=3;rotatable=0;labelPosition=right;points=[];portConstraint=eastwest;" vertex="1" parent="386">
                    <mxGeometry y="40" width="240" height="10" as="geometry"/>
                </mxCell>
                <mxCell id="389" value="+ run(request: String, rows_to_update: Array)" style="text;strokeColor=none;fillColor=none;align=left;verticalAlign=top;spacingLeft=4;spacingRight=4;overflow=hidden;rotatable=0;points=[[0,0.5],[1,0.5]];portConstraint=eastwest;whiteSpace=wrap;" vertex="1" parent="386">
                    <mxGeometry y="50" width="240" height="70" as="geometry"/>
                </mxCell>
                <mxCell id="397" value="AddRowsToUpdate" style="swimlane;fontStyle=1;align=center;verticalAlign=top;childLayout=stackLayout;horizontal=1;startSize=26;horizontalStack=0;resizeParent=1;resizeParentMax=0;resizeLast=0;collapsible=1;marginBottom=0;" vertex="1" parent="1">
                    <mxGeometry x="400" y="1990" width="240" height="120" as="geometry"/>
                </mxCell>
                <mxCell id="398" value="&#10;" style="text;strokeColor=none;fillColor=none;align=left;verticalAlign=top;spacingLeft=4;spacingRight=4;overflow=hidden;rotatable=0;points=[[0,0.5],[1,0.5]];portConstraint=eastwest;" vertex="1" parent="397">
                    <mxGeometry y="26" width="240" height="14" as="geometry"/>
                </mxCell>
                <mxCell id="399" value="" style="line;strokeWidth=1;fillColor=none;align=left;verticalAlign=middle;spacingTop=-1;spacingLeft=3;spacingRight=3;rotatable=0;labelPosition=right;points=[];portConstraint=eastwest;" vertex="1" parent="397">
                    <mxGeometry y="40" width="240" height="10" as="geometry"/>
                </mxCell>
                <mxCell id="400" value="+ run(request: String, headers: Array, rows_to_update: Array)" style="text;strokeColor=none;fillColor=none;align=left;verticalAlign=top;spacingLeft=4;spacingRight=4;overflow=hidden;rotatable=0;points=[[0,0.5],[1,0.5]];portConstraint=eastwest;whiteSpace=wrap;" vertex="1" parent="397">
                    <mxGeometry y="50" width="240" height="70" as="geometry"/>
                </mxCell>
                <mxCell id="285" value="JoinCsvs" style="swimlane;fontStyle=1;align=center;verticalAlign=top;childLayout=stackLayout;horizontal=1;startSize=26;horizontalStack=0;resizeParent=1;resizeParentMax=0;resizeLast=0;collapsible=1;marginBottom=0;" vertex="1" parent="1">
                    <mxGeometry x="-275" y="1798" width="275" height="180" as="geometry"/>
                </mxCell>
                <mxCell id="286" value="+ join_result: Array" style="text;strokeColor=none;fillColor=none;align=left;verticalAlign=top;spacingLeft=4;spacingRight=4;overflow=hidden;rotatable=0;points=[[0,0.5],[1,0.5]];portConstraint=eastwest;" vertex="1" parent="285">
                    <mxGeometry y="26" width="275" height="74" as="geometry"/>
                </mxCell>
                <mxCell id="287" value="" style="line;strokeWidth=1;fillColor=none;align=left;verticalAlign=middle;spacingTop=-1;spacingLeft=3;spacingRight=3;rotatable=0;labelPosition=right;points=[];portConstraint=eastwest;" vertex="1" parent="285">
                    <mxGeometry y="100" width="275" height="10" as="geometry"/>
                </mxCell>
                <mxCell id="288" value="+ run(request: String)" style="text;strokeColor=none;fillColor=none;align=left;verticalAlign=top;spacingLeft=4;spacingRight=4;overflow=hidden;rotatable=0;points=[[0,0.5],[1,0.5]];portConstraint=eastwest;whiteSpace=wrap;" vertex="1" parent="285">
                    <mxGeometry y="110" width="275" height="70" as="geometry"/>
                </mxCell>
                <mxCell id="295" value="AddRows" style="swimlane;fontStyle=1;align=center;verticalAlign=top;childLayout=stackLayout;horizontal=1;startSize=26;horizontalStack=0;resizeParent=1;resizeParentMax=0;resizeLast=0;collapsible=1;marginBottom=0;" vertex="1" parent="1">
                    <mxGeometry x="-282.5" y="2225" width="275" height="106" as="geometry"/>
                </mxCell>
                <mxCell id="297" value="" style="line;strokeWidth=1;fillColor=none;align=left;verticalAlign=middle;spacingTop=-1;spacingLeft=3;spacingRight=3;rotatable=0;labelPosition=right;points=[];portConstraint=eastwest;" vertex="1" parent="295">
                    <mxGeometry y="26" width="275" height="10" as="geometry"/>
                </mxCell>
                <mxCell id="298" value="+ run(request: String)" style="text;strokeColor=none;fillColor=none;align=left;verticalAlign=top;spacingLeft=4;spacingRight=4;overflow=hidden;rotatable=0;points=[[0,0.5],[1,0.5]];portConstraint=eastwest;whiteSpace=wrap;" vertex="1" parent="295">
                    <mxGeometry y="36" width="275" height="70" as="geometry"/>
                </mxCell>
                <mxCell id="408" style="edgeStyle=orthogonalEdgeStyle;html=1;entryX=0.5;entryY=0;entryDx=0;entryDy=0;dashed=1;endArrow=classic;endFill=1;" edge="1" parent="1" source="300" target="304">
                    <mxGeometry relative="1" as="geometry"/>
                </mxCell>
                <mxCell id="300" value="AddCurrentTableRows" style="swimlane;fontStyle=1;align=center;verticalAlign=top;childLayout=stackLayout;horizontal=1;startSize=26;horizontalStack=0;resizeParent=1;resizeParentMax=0;resizeLast=0;collapsible=1;marginBottom=0;" vertex="1" parent="1">
                    <mxGeometry x="-280" y="2415" width="275" height="106" as="geometry"/>
                </mxCell>
                <mxCell id="301" value="" style="line;strokeWidth=1;fillColor=none;align=left;verticalAlign=middle;spacingTop=-1;spacingLeft=3;spacingRight=3;rotatable=0;labelPosition=right;points=[];portConstraint=eastwest;" vertex="1" parent="300">
                    <mxGeometry y="26" width="275" height="10" as="geometry"/>
                </mxCell>
                <mxCell id="302" value="+ run(request: String, current_table_array: Array)" style="text;strokeColor=none;fillColor=none;align=left;verticalAlign=top;spacingLeft=4;spacingRight=4;overflow=hidden;rotatable=0;points=[[0,0.5],[1,0.5]];portConstraint=eastwest;whiteSpace=wrap;" vertex="1" parent="300">
                    <mxGeometry y="36" width="275" height="70" as="geometry"/>
                </mxCell>
                <mxCell id="303" value="" style="edgeStyle=orthogonalEdgeStyle;html=1;dashed=1;endArrow=classic;endFill=1;" edge="1" parent="1" source="295" target="300">
                    <mxGeometry relative="1" as="geometry">
                        <Array as="points">
                            <mxPoint x="-142" y="2355"/>
                            <mxPoint x="-142" y="2355"/>
                        </Array>
                    </mxGeometry>
                </mxCell>
                <mxCell id="304" value="AddJoinTableRows" style="swimlane;fontStyle=1;align=center;verticalAlign=top;childLayout=stackLayout;horizontal=1;startSize=26;horizontalStack=0;resizeParent=1;resizeParentMax=0;resizeLast=0;collapsible=1;marginBottom=0;" vertex="1" parent="1">
                    <mxGeometry x="-280" y="2575" width="275" height="106" as="geometry"/>
                </mxCell>
                <mxCell id="305" value="" style="line;strokeWidth=1;fillColor=none;align=left;verticalAlign=middle;spacingTop=-1;spacingLeft=3;spacingRight=3;rotatable=0;labelPosition=right;points=[];portConstraint=eastwest;" vertex="1" parent="304">
                    <mxGeometry y="26" width="275" height="10" as="geometry"/>
                </mxCell>
                <mxCell id="306" value="+ run(request: String, current_table_array: Array, new_joined_csv: String)" style="text;strokeColor=none;fillColor=none;align=left;verticalAlign=top;spacingLeft=4;spacingRight=4;overflow=hidden;rotatable=0;points=[[0,0.5],[1,0.5]];portConstraint=eastwest;whiteSpace=wrap;" vertex="1" parent="304">
                    <mxGeometry y="36" width="275" height="70" as="geometry"/>
                </mxCell>
                <mxCell id="308" value="ConnectMatchingRows" style="swimlane;fontStyle=1;align=center;verticalAlign=top;childLayout=stackLayout;horizontal=1;startSize=26;horizontalStack=0;resizeParent=1;resizeParentMax=0;resizeLast=0;collapsible=1;marginBottom=0;" vertex="1" parent="1">
                    <mxGeometry x="-280" y="2761" width="275" height="106" as="geometry"/>
                </mxCell>
                <mxCell id="309" value="" style="line;strokeWidth=1;fillColor=none;align=left;verticalAlign=middle;spacingTop=-1;spacingLeft=3;spacingRight=3;rotatable=0;labelPosition=right;points=[];portConstraint=eastwest;" vertex="1" parent="308">
                    <mxGeometry y="26" width="275" height="10" as="geometry"/>
                </mxCell>
                <mxCell id="310" value="+ run(request: String, current_table_row: CSV, join_table_row: CSV, new_joined_csv: String)" style="text;strokeColor=none;fillColor=none;align=left;verticalAlign=top;spacingLeft=4;spacingRight=4;overflow=hidden;rotatable=0;points=[[0,0.5],[1,0.5]];portConstraint=eastwest;whiteSpace=wrap;" vertex="1" parent="308">
                    <mxGeometry y="36" width="275" height="70" as="geometry"/>
                </mxCell>
                <mxCell id="311" value="" style="edgeStyle=orthogonalEdgeStyle;html=1;dashed=1;endArrow=classic;endFill=1;" edge="1" parent="1" source="304" target="308">
                    <mxGeometry relative="1" as="geometry"/>
                </mxCell>
                <mxCell id="407" style="edgeStyle=orthogonalEdgeStyle;html=1;entryX=0.5;entryY=0;entryDx=0;entryDy=0;dashed=1;endArrow=classic;endFill=1;" edge="1" parent="1" source="290" target="295">
                    <mxGeometry relative="1" as="geometry">
                        <Array as="points">
                            <mxPoint x="-145" y="2175"/>
                            <mxPoint x="-145" y="2175"/>
                        </Array>
                    </mxGeometry>
                </mxCell>
                <mxCell id="290" value="CreateJoinCSV" style="swimlane;fontStyle=1;align=center;verticalAlign=top;childLayout=stackLayout;horizontal=1;startSize=26;horizontalStack=0;resizeParent=1;resizeParentMax=0;resizeLast=0;collapsible=1;marginBottom=0;" vertex="1" parent="1">
                    <mxGeometry x="-280" y="2048" width="275" height="106" as="geometry"/>
                </mxCell>
                <mxCell id="292" value="" style="line;strokeWidth=1;fillColor=none;align=left;verticalAlign=middle;spacingTop=-1;spacingLeft=3;spacingRight=3;rotatable=0;labelPosition=right;points=[];portConstraint=eastwest;" vertex="1" parent="290">
                    <mxGeometry y="26" width="275" height="10" as="geometry"/>
                </mxCell>
                <mxCell id="293" value="+ run(request: String)&#10;+ add_combined_headers(request: String)&#10;+ add_combined_headers_to_joined(request: String)" style="text;strokeColor=none;fillColor=none;align=left;verticalAlign=top;spacingLeft=4;spacingRight=4;overflow=hidden;rotatable=0;points=[[0,0.5],[1,0.5]];portConstraint=eastwest;whiteSpace=wrap;" vertex="1" parent="290">
                    <mxGeometry y="36" width="275" height="70" as="geometry"/>
                </mxCell>
                <mxCell id="294" value="" style="edgeStyle=orthogonalEdgeStyle;html=1;dashed=1;endArrow=classic;endFill=1;" edge="1" parent="1" source="285" target="290">
                    <mxGeometry relative="1" as="geometry">
                        <Array as="points">
                            <mxPoint x="-142" y="2005"/>
                            <mxPoint x="-142" y="2005"/>
                        </Array>
                    </mxGeometry>
                </mxCell>
                <mxCell id="326" value="" style="group" vertex="1" connectable="0" parent="1">
                    <mxGeometry x="-1030" y="1775" width="560" height="566" as="geometry"/>
                </mxCell>
                <mxCell id="73" value="CsvProcess" style="swimlane;fontStyle=1;align=center;verticalAlign=top;childLayout=stackLayout;horizontal=1;startSize=26;horizontalStack=0;resizeParent=1;resizeParentMax=0;resizeLast=0;collapsible=1;marginBottom=0;" parent="326" vertex="1">
                    <mxGeometry x="160" y="24" width="240" height="180" as="geometry"/>
                </mxCell>
                <mxCell id="74" value="+ table_data: CSV" style="text;strokeColor=none;fillColor=none;align=left;verticalAlign=top;spacingLeft=4;spacingRight=4;overflow=hidden;rotatable=0;points=[[0,0.5],[1,0.5]];portConstraint=eastwest;" parent="73" vertex="1">
                    <mxGeometry y="26" width="240" height="74" as="geometry"/>
                </mxCell>
                <mxCell id="75" value="" style="line;strokeWidth=1;fillColor=none;align=left;verticalAlign=middle;spacingTop=-1;spacingLeft=3;spacingRight=3;rotatable=0;labelPosition=right;points=[];portConstraint=eastwest;" parent="73" vertex="1">
                    <mxGeometry y="100" width="240" height="10" as="geometry"/>
                </mxCell>
                <mxCell id="76" value="+ initialize(table_data: CSV)&#10;+ run(request: String)" style="text;strokeColor=none;fillColor=none;align=left;verticalAlign=top;spacingLeft=4;spacingRight=4;overflow=hidden;rotatable=0;points=[[0,0.5],[1,0.5]];portConstraint=eastwest;whiteSpace=wrap;" parent="73" vertex="1">
                    <mxGeometry y="110" width="240" height="70" as="geometry"/>
                </mxCell>
                <mxCell id="133" value="" style="shape=waypoint;sketch=0;size=6;pointerEvents=1;points=[];fillColor=default;resizable=0;rotatable=0;perimeter=centerPerimeter;snapToPoint=1;verticalAlign=top;fontStyle=1;startSize=26;" parent="326" vertex="1">
                    <mxGeometry x="260" y="4" width="40" height="40" as="geometry"/>
                </mxCell>
                <mxCell id="312" value="RowToHash" style="swimlane;fontStyle=1;align=center;verticalAlign=top;childLayout=stackLayout;horizontal=1;startSize=26;horizontalStack=0;resizeParent=1;resizeParentMax=0;resizeLast=0;collapsible=1;marginBottom=0;" vertex="1" parent="326">
                    <mxGeometry x="160" y="284" width="240" height="106" as="geometry"/>
                </mxCell>
                <mxCell id="314" value="" style="line;strokeWidth=1;fillColor=none;align=left;verticalAlign=middle;spacingTop=-1;spacingLeft=3;spacingRight=3;rotatable=0;labelPosition=right;points=[];portConstraint=eastwest;" vertex="1" parent="312">
                    <mxGeometry y="26" width="240" height="10" as="geometry"/>
                </mxCell>
                <mxCell id="315" value="+ run(request: String, table_data: CSV)" style="text;strokeColor=none;fillColor=none;align=left;verticalAlign=top;spacingLeft=4;spacingRight=4;overflow=hidden;rotatable=0;points=[[0,0.5],[1,0.5]];portConstraint=eastwest;whiteSpace=wrap;" vertex="1" parent="312">
                    <mxGeometry y="36" width="240" height="70" as="geometry"/>
                </mxCell>
                <mxCell id="316" value="" style="edgeStyle=orthogonalEdgeStyle;html=1;dashed=1;endArrow=classic;endFill=1;" edge="1" parent="326" source="73" target="312">
                    <mxGeometry relative="1" as="geometry"/>
                </mxCell>
                <mxCell id="317" value="FilterByColumns" style="swimlane;fontStyle=1;align=center;verticalAlign=top;childLayout=stackLayout;horizontal=1;startSize=26;horizontalStack=0;resizeParent=1;resizeParentMax=0;resizeLast=0;collapsible=1;marginBottom=0;" vertex="1" parent="326">
                    <mxGeometry y="464" width="240" height="106" as="geometry"/>
                </mxCell>
                <mxCell id="318" value="" style="line;strokeWidth=1;fillColor=none;align=left;verticalAlign=middle;spacingTop=-1;spacingLeft=3;spacingRight=3;rotatable=0;labelPosition=right;points=[];portConstraint=eastwest;" vertex="1" parent="317">
                    <mxGeometry y="26" width="240" height="10" as="geometry"/>
                </mxCell>
                <mxCell id="319" value="+ run(row: Hash, request: String)" style="text;strokeColor=none;fillColor=none;align=left;verticalAlign=top;spacingLeft=4;spacingRight=4;overflow=hidden;rotatable=0;points=[[0,0.5],[1,0.5]];portConstraint=eastwest;whiteSpace=wrap;" vertex="1" parent="317">
                    <mxGeometry y="36" width="240" height="70" as="geometry"/>
                </mxCell>
                <mxCell id="320" value="" style="edgeStyle=orthogonalEdgeStyle;html=1;dashed=1;endArrow=classic;endFill=1;" edge="1" parent="326" source="312" target="317">
                    <mxGeometry relative="1" as="geometry"/>
                </mxCell>
                <mxCell id="321" value="FilterByCriteria" style="swimlane;fontStyle=1;align=center;verticalAlign=top;childLayout=stackLayout;horizontal=1;startSize=26;horizontalStack=0;resizeParent=1;resizeParentMax=0;resizeLast=0;collapsible=1;marginBottom=0;" vertex="1" parent="326">
                    <mxGeometry x="320" y="460" width="240" height="106" as="geometry"/>
                </mxCell>
                <mxCell id="322" value="" style="line;strokeWidth=1;fillColor=none;align=left;verticalAlign=middle;spacingTop=-1;spacingLeft=3;spacingRight=3;rotatable=0;labelPosition=right;points=[];portConstraint=eastwest;" vertex="1" parent="321">
                    <mxGeometry y="26" width="240" height="10" as="geometry"/>
                </mxCell>
                <mxCell id="323" value="+ run(row_filtered: Hash, request:String)" style="text;strokeColor=none;fillColor=none;align=left;verticalAlign=top;spacingLeft=4;spacingRight=4;overflow=hidden;rotatable=0;points=[[0,0.5],[1,0.5]];portConstraint=eastwest;whiteSpace=wrap;" vertex="1" parent="321">
                    <mxGeometry y="36" width="240" height="70" as="geometry"/>
                </mxCell>
                <mxCell id="324" value="" style="edgeStyle=orthogonalEdgeStyle;html=1;dashed=1;endArrow=classic;endFill=1;" edge="1" parent="326" source="312">
                    <mxGeometry relative="1" as="geometry">
                        <mxPoint x="440" y="464" as="targetPoint"/>
                    </mxGeometry>
                </mxCell>
                <mxCell id="346" style="edgeStyle=orthogonalEdgeStyle;html=1;entryX=1;entryY=0.5;entryDx=0;entryDy=0;dashed=1;endArrow=classic;endFill=1;" edge="1" parent="1" source="74" target="80">
                    <mxGeometry relative="1" as="geometry"/>
                </mxCell>
                <mxCell id="77" value="OrderProcess" style="swimlane;fontStyle=1;align=center;verticalAlign=top;childLayout=stackLayout;horizontal=1;startSize=26;horizontalStack=0;resizeParent=1;resizeParentMax=0;resizeLast=0;collapsible=1;marginBottom=0;" parent="1" vertex="1">
                    <mxGeometry x="-1670" y="1792" width="240" height="106" as="geometry"/>
                </mxCell>
                <mxCell id="79" value="" style="line;strokeWidth=1;fillColor=none;align=left;verticalAlign=middle;spacingTop=-1;spacingLeft=3;spacingRight=3;rotatable=0;labelPosition=right;points=[];portConstraint=eastwest;" parent="77" vertex="1">
                    <mxGeometry y="26" width="240" height="10" as="geometry"/>
                </mxCell>
                <mxCell id="80" value="+ run(request: String)" style="text;strokeColor=none;fillColor=none;align=left;verticalAlign=top;spacingLeft=4;spacingRight=4;overflow=hidden;rotatable=0;points=[[0,0.5],[1,0.5]];portConstraint=eastwest;whiteSpace=wrap;" parent="77" vertex="1">
                    <mxGeometry y="36" width="240" height="70" as="geometry"/>
                </mxCell>
                <mxCell id="328" value="CliEntryOrder" style="swimlane;fontStyle=1;align=center;verticalAlign=top;childLayout=stackLayout;horizontal=1;startSize=26;horizontalStack=0;resizeParent=1;resizeParentMax=0;resizeLast=0;collapsible=1;marginBottom=0;" vertex="1" parent="1">
                    <mxGeometry x="-1850" y="1972" width="240" height="106" as="geometry"/>
                </mxCell>
                <mxCell id="329" value="" style="line;strokeWidth=1;fillColor=none;align=left;verticalAlign=middle;spacingTop=-1;spacingLeft=3;spacingRight=3;rotatable=0;labelPosition=right;points=[];portConstraint=eastwest;" vertex="1" parent="328">
                    <mxGeometry y="26" width="240" height="10" as="geometry"/>
                </mxCell>
                <mxCell id="330" value="+ run(request: String)" style="text;strokeColor=none;fillColor=none;align=left;verticalAlign=top;spacingLeft=4;spacingRight=4;overflow=hidden;rotatable=0;points=[[0,0.5],[1,0.5]];portConstraint=eastwest;whiteSpace=wrap;" vertex="1" parent="328">
                    <mxGeometry y="36" width="240" height="70" as="geometry"/>
                </mxCell>
                <mxCell id="331" value="" style="edgeStyle=orthogonalEdgeStyle;html=1;dashed=1;endArrow=classic;endFill=1;" edge="1" parent="1" source="77" target="328">
                    <mxGeometry relative="1" as="geometry">
                        <Array as="points">
                            <mxPoint x="-1550" y="1942"/>
                            <mxPoint x="-1730" y="1942"/>
                        </Array>
                    </mxGeometry>
                </mxCell>
                <mxCell id="332" value="DefaultOrder" style="swimlane;fontStyle=1;align=center;verticalAlign=top;childLayout=stackLayout;horizontal=1;startSize=26;horizontalStack=0;resizeParent=1;resizeParentMax=0;resizeLast=0;collapsible=1;marginBottom=0;" vertex="1" parent="1">
                    <mxGeometry x="-1490" y="1978" width="240" height="106" as="geometry"/>
                </mxCell>
                <mxCell id="333" value="" style="line;strokeWidth=1;fillColor=none;align=left;verticalAlign=middle;spacingTop=-1;spacingLeft=3;spacingRight=3;rotatable=0;labelPosition=right;points=[];portConstraint=eastwest;" vertex="1" parent="332">
                    <mxGeometry y="26" width="240" height="10" as="geometry"/>
                </mxCell>
                <mxCell id="334" value="+ run(request: String)" style="text;strokeColor=none;fillColor=none;align=left;verticalAlign=top;spacingLeft=4;spacingRight=4;overflow=hidden;rotatable=0;points=[[0,0.5],[1,0.5]];portConstraint=eastwest;whiteSpace=wrap;" vertex="1" parent="332">
                    <mxGeometry y="36" width="240" height="70" as="geometry"/>
                </mxCell>
                <mxCell id="335" value="" style="edgeStyle=orthogonalEdgeStyle;html=1;dashed=1;endArrow=classic;endFill=1;" edge="1" parent="1" source="77" target="332">
                    <mxGeometry relative="1" as="geometry"/>
                </mxCell>
                <mxCell id="339" value="" style="edgeStyle=orthogonalEdgeStyle;html=1;dashed=1;endArrow=classic;endFill=1;" edge="1" parent="1" source="328">
                    <mxGeometry relative="1" as="geometry">
                        <Array as="points">
                            <mxPoint x="-1730" y="2112"/>
                            <mxPoint x="-1900" y="2112"/>
                        </Array>
                        <mxPoint x="-1899.923076923077" y="2164" as="targetPoint"/>
                    </mxGeometry>
                </mxCell>
                <mxCell id="340" value="OrderDesc" style="swimlane;fontStyle=1;align=center;verticalAlign=top;childLayout=stackLayout;horizontal=1;startSize=26;horizontalStack=0;resizeParent=1;resizeParentMax=0;resizeLast=0;collapsible=1;marginBottom=0;" vertex="1" parent="1">
                    <mxGeometry x="-1670" y="2164" width="240" height="106" as="geometry"/>
                </mxCell>
                <mxCell id="341" value="" style="line;strokeWidth=1;fillColor=none;align=left;verticalAlign=middle;spacingTop=-1;spacingLeft=3;spacingRight=3;rotatable=0;labelPosition=right;points=[];portConstraint=eastwest;" vertex="1" parent="340">
                    <mxGeometry y="26" width="240" height="10" as="geometry"/>
                </mxCell>
                <mxCell id="342" value="+ run(request: String, column_name: String)&#10;+ partition_nil_desc(request: String, column_name: String)" style="text;strokeColor=none;fillColor=none;align=left;verticalAlign=top;spacingLeft=4;spacingRight=4;overflow=hidden;rotatable=0;points=[[0,0.5],[1,0.5]];portConstraint=eastwest;whiteSpace=wrap;" vertex="1" parent="340">
                    <mxGeometry y="36" width="240" height="70" as="geometry"/>
                </mxCell>
                <mxCell id="343" style="edgeStyle=orthogonalEdgeStyle;html=1;entryX=0.5;entryY=0;entryDx=0;entryDy=0;dashed=1;endArrow=classic;endFill=1;" edge="1" parent="1" source="328" target="340">
                    <mxGeometry relative="1" as="geometry">
                        <Array as="points">
                            <mxPoint x="-1730" y="2112"/>
                            <mxPoint x="-1550" y="2112"/>
                        </Array>
                    </mxGeometry>
                </mxCell>
                <mxCell id="377" style="edgeStyle=orthogonalEdgeStyle;html=1;entryX=1;entryY=0.5;entryDx=0;entryDy=0;dashed=1;endArrow=classic;endFill=1;" edge="1" parent="1" source="286" target="74">
                    <mxGeometry relative="1" as="geometry"/>
                </mxCell>
                <mxCell id="409" style="edgeStyle=orthogonalEdgeStyle;html=1;entryX=0.578;entryY=0.011;entryDx=0;entryDy=0;entryPerimeter=0;dashed=1;endArrow=classic;endFill=1;" edge="1" parent="1" source="69" target="285">
                    <mxGeometry relative="1" as="geometry"/>
                </mxCell>
                <mxCell id="419" value="" style="edgeStyle=orthogonalEdgeStyle;html=1;dashed=1;endArrow=classic;endFill=1;" edge="1" parent="1" source="410" target="415">
                    <mxGeometry relative="1" as="geometry"/>
                </mxCell>
                <mxCell id="410" value="CollectRowsToKeep" style="swimlane;fontStyle=1;align=center;verticalAlign=top;childLayout=stackLayout;horizontal=1;startSize=26;horizontalStack=0;resizeParent=1;resizeParentMax=0;resizeLast=0;collapsible=1;marginBottom=0;" vertex="1" parent="1">
                    <mxGeometry x="720" y="1600" width="240" height="120" as="geometry"/>
                </mxCell>
                <mxCell id="411" value="&#10;" style="text;strokeColor=none;fillColor=none;align=left;verticalAlign=top;spacingLeft=4;spacingRight=4;overflow=hidden;rotatable=0;points=[[0,0.5],[1,0.5]];portConstraint=eastwest;" vertex="1" parent="410">
                    <mxGeometry y="26" width="240" height="14" as="geometry"/>
                </mxCell>
                <mxCell id="412" value="" style="line;strokeWidth=1;fillColor=none;align=left;verticalAlign=middle;spacingTop=-1;spacingLeft=3;spacingRight=3;rotatable=0;labelPosition=right;points=[];portConstraint=eastwest;" vertex="1" parent="410">
                    <mxGeometry y="40" width="240" height="10" as="geometry"/>
                </mxCell>
                <mxCell id="413" value="+ run(request: String, rows_to_keep: Array)" style="text;strokeColor=none;fillColor=none;align=left;verticalAlign=top;spacingLeft=4;spacingRight=4;overflow=hidden;rotatable=0;points=[[0,0.5],[1,0.5]];portConstraint=eastwest;" vertex="1" parent="410">
                    <mxGeometry y="50" width="240" height="70" as="geometry"/>
                </mxCell>
                <mxCell id="415" value="AddRowsToKeep" style="swimlane;fontStyle=1;align=center;verticalAlign=top;childLayout=stackLayout;horizontal=1;startSize=26;horizontalStack=0;resizeParent=1;resizeParentMax=0;resizeLast=0;collapsible=1;marginBottom=0;" vertex="1" parent="1">
                    <mxGeometry x="720" y="1800" width="240" height="120" as="geometry"/>
                </mxCell>
                <mxCell id="416" value="&#10;" style="text;strokeColor=none;fillColor=none;align=left;verticalAlign=top;spacingLeft=4;spacingRight=4;overflow=hidden;rotatable=0;points=[[0,0.5],[1,0.5]];portConstraint=eastwest;" vertex="1" parent="415">
                    <mxGeometry y="26" width="240" height="14" as="geometry"/>
                </mxCell>
                <mxCell id="417" value="" style="line;strokeWidth=1;fillColor=none;align=left;verticalAlign=middle;spacingTop=-1;spacingLeft=3;spacingRight=3;rotatable=0;labelPosition=right;points=[];portConstraint=eastwest;" vertex="1" parent="415">
                    <mxGeometry y="40" width="240" height="10" as="geometry"/>
                </mxCell>
                <mxCell id="418" value="+ run(request: String, headers: Array, rows_to_keep: Array)" style="text;strokeColor=none;fillColor=none;align=left;verticalAlign=top;spacingLeft=4;spacingRight=4;overflow=hidden;rotatable=0;points=[[0,0.5],[1,0.5]];portConstraint=eastwest;whiteSpace=wrap;" vertex="1" parent="415">
                    <mxGeometry y="50" width="240" height="70" as="geometry"/>
                </mxCell>
            </root>
        </mxGraphModel>
    </diagram>
</mxfile>
